

<svg version="1.0" xmlns="http://www.w3.org/2000/svg"
 width="48.000000pt" height="48.000000pt" viewBox="0 0 48.000000 48.000000"
 preserveAspectRatio="xMidYMid meet">
<metadata>
Created by potrace 1.10, written by Peter Selinger 2001-2011
</metadata>
<g transform="translate(0.000000,48.000000) scale(0.100000,-0.100000)"
fill="#000000" stroke="none">
<path d="M54 445 l-25 -25 3 -186 c4 -234 -4 -224 167 -224 110 0 119 2 139
23 17 18 22 36 22 81 0 49 -2 57 -17 54 -14 -2 -19 -16 -23 -58 l-5 -55 -55
-7 c-66 -9 -172 1 -182 16 -4 6 -8 85 -8 176 0 91 4 170 8 176 10 15 116 25
182 16 l55 -7 5 -55 c4 -42 9 -56 23 -58 27 -5 25 106 -3 136 -19 20 -30 22
-141 22 -115 0 -121 -1 -145 -25z"/>
<path d="M169 311 c-27 -28 -49 -60 -49 -71 0 -11 22 -43 49 -71 57 -59 84
-62 89 -11 l3 32 83 0 c89 0 106 8 106 50 0 42 -17 50 -106 50 l-83 0 -3 32
c-5 51 -32 48 -89 -11z m81 -36 c26 -19 46 -25 88 -25 33 0 51 -4 47 -10 -3
-5 -28 -10 -54 -10 -35 0 -56 -7 -81 -25 l-34 -25 -23 22 c-29 27 -29 45 -1
75 12 13 22 23 23 23 1 0 16 -11 35 -25z"/>
</g>
</svg>
