<svg xmlns="http://www.w3.org/2000/svg" fill="none" viewBox="0 0 24 24" id="File-Map-Fill--Streamline-Rounded-Fill-Material" height="24" width="24">
  <path fill="#000000" d="M4.5 21c-0.4 0 -0.75 -0.15 -1.05 -0.45 -0.3 -0.3 -0.45 -0.65 -0.45 -1.05V4.5c0 -0.4 0.15 -0.75 0.45 -1.05C3.75 3.15 4.1 3 4.5 3h15c0.4 0 0.75 0.15 1.05 0.45 0.3 0.3 0.45 0.65 0.45 1.05v15c0 0.4 -0.15 0.75 -0.45 1.05 -0.3 0.3 -0.65 0.45 -1.05 0.45H4.5Zm7.5 -15.025c-1.28335 0 -2.4125 0.44165 -3.3875 1.325 -0.975 0.88335 -1.4625 2.08335 -1.4625 3.6 0 1.26665 0.50835 2.50415 1.525 3.7125 1.01665 1.20835 1.95835 2.19585 2.825 2.9625 0.08335 0.06665 0.16665 0.11665 0.25 0.15 0.08335 0.03335 0.16665 0.05 0.25 0.05 0.08335 0 0.16665 -0.0125 0.25 -0.0375 0.08335 -0.025 0.16665 -0.07085 0.25 -0.1375 0.88335 -0.76665 1.82915 -1.75835 2.8375 -2.975 1.00835 -1.21665 1.5125 -2.45835 1.5125 -3.725 0 -1.51665 -0.4875 -2.71665 -1.4625 -3.6 -0.975 -0.88335 -2.10415 -1.325 -3.3875 -1.325Zm0 6.325c-0.38335 0 -0.7125 -0.1375 -0.9875 -0.4125 -0.275 -0.275 -0.4125 -0.60415 -0.4125 -0.9875 0 -0.38335 0.1375 -0.7125 0.4125 -0.9875 0.275 -0.275 0.60415 -0.4125 0.9875 -0.4125 0.38335 0 0.7125 0.1375 0.9875 0.4125 0.275 0.275 0.4125 0.60415 0.4125 0.9875 0 0.38335 -0.1375 0.7125 -0.4125 0.9875 -0.275 0.275 -0.60415 0.4125 -0.9875 0.4125Z" stroke-width="0.5"></path>
</svg>