<svg xmlns="http://www.w3.org/2000/svg" fill="none" viewBox="0 0 24 24" id="Conversion-Path-Fill--Streamline-Rounded-Fill-Material" height="24" width="24">
  <desc>
    Conversion Path Fill Streamline Icon: https://streamlinehq.com
  </desc>
  <path fill="#000000" d="M19.15 21c-0.68335 0 -1.27915 -0.20415 -1.7875 -0.6125 -0.50835 -0.40835 -0.82915 -0.90415 -0.9625 -1.4875H11.075c-1.1 0 -2.0125 -0.3625 -2.7375 -1.0875 -0.725 -0.725 -1.0875 -1.6375 -1.0875 -2.7375 0 -1.1 0.3625 -2.0125 1.0875 -2.7375 0.725 -0.725 1.6375 -1.0875 2.7375 -1.0875H13c0.68335 0 1.24165 -0.21665 1.675 -0.65 0.43335 -0.43335 0.65 -0.99165 0.65 -1.675s-0.21665 -1.24165 -0.65 -1.675c-0.43335 -0.43335 -0.99165 -0.65 -1.675 -0.65H7.6c-0.15 0.58335 -0.475 1.07915 -0.975 1.4875S5.53335 8.7 4.85 8.7c-0.8 0 -1.475 -0.275 -2.025 -0.825C2.275 7.325 2 6.65 2 5.85c0 -0.8 0.275 -1.475 0.825 -2.025C3.375 3.275 4.05 3 4.85 3c0.68335 0 1.275 0.204165 1.775 0.6125S7.45 4.516665 7.6 5.1H13c1.1 0 2.0125 0.3625 2.7375 1.0875 0.725 0.725 1.0875 1.6375 1.0875 2.7375 0 1.1 -0.3625 2.0125 -1.0875 2.7375C15.0125 12.3875 14.1 12.75 13 12.75h-1.925c-0.68335 0 -1.24165 0.21665 -1.675 0.65 -0.43335 0.43335 -0.65 0.99165 -0.65 1.675s0.21665 1.24165 0.65 1.675c0.43335 0.43335 0.99165 0.65 1.675 0.65H16.4c0.15 -0.58335 0.475 -1.07915 0.975 -1.4875S18.46665 15.3 19.15 15.3c0.8 0 1.475 0.275 2.025 0.825 0.55 0.55 0.825 1.225 0.825 2.025 0 0.8 -0.275 1.475 -0.825 2.025 -0.55 0.55 -1.225 0.825 -2.025 0.825ZM4.85 7.2c0.38335 0 0.70415 -0.12915 0.9625 -0.3875 0.25835 -0.25835 0.3875 -0.57915 0.3875 -0.9625 0 -0.38335 -0.12915 -0.70415 -0.3875 -0.9625C5.55415 4.629165 5.23335 4.5 4.85 4.5c-0.383335 0 -0.704165 0.129165 -0.9625 0.3875C3.629165 5.14585 3.5 5.46665 3.5 5.85c0 0.38335 0.129165 0.70415 0.3875 0.9625 0.258335 0.25835 0.579165 0.3875 0.9625 0.3875Z" stroke-width="0.5"></path>
</svg>