<svg xmlns="http://www.w3.org/2000/svg" fill="none" viewBox="0 0 24 24" id="Sports-Motorsports-Fill--Streamline-Rounded-Fill-Material" height="24" width="24">
  <desc>
    Sports Motorsports Fill Streamline Icon: https://streamlinehq.com
  </desc>
  <path fill="white" d="M14.2002 18.5H4.575195c-0.333335 0 -0.604165 -0.10415 -0.8125 -0.3125 -0.208335 -0.20835 -0.3125 -0.47915 -0.3125 -0.8125 0 -0.58335 0.020835 -1.0625 0.0625 -1.4375s0.0875 -0.7125 0.1375 -1.0125H10.4002c0.96665 0 1.78335 -0.3375 2.45 -1.0125 0.66665 -0.675 1 -1.5125 1 -2.5125 0 -0.75 -0.15415 -1.42085 -0.4625 -2.0125 -0.30835 -0.59165 -0.8875 -1.04585 -1.7375 -1.3625l-3.025 -1.125c0.9 -0.48335 1.75835 -0.8375 2.575 -1.0625 0.81665 -0.225 1.69165 -0.3375 2.625 -0.3375 1.83335 0 3.40415 0.61665 4.7125 1.85 1.30835 1.23335 1.9625 2.76665 1.9625 4.6 0 1.78335 -0.60835 3.32085 -1.825 4.6125 -1.21665 1.29165 -2.70835 1.9375 -4.475 1.9375ZM3.825195 13.425c0.3 -1.15 0.725 -2.18335 1.275005 -3.1 0.55 -0.91665 1.24165 -1.74165 2.075 -2.475l3.85 1.6c0.43335 0.15 0.7625 0.39165 0.9875 0.725 0.225 0.33335 0.3375 0.74165 0.3375 1.225 0 0.56665 -0.19585 1.04585 -0.5875 1.4375 -0.39165 0.39165 -0.89585 0.5875 -1.5125 0.5875H3.825195Z" stroke-width="0.5"></path>
</svg>